{"asset":{"generator":"glTF-Transform v3.5.1","version":"2.0","extras":{"author":"Polygon Artisan (https://sketchfab.com/kleberrcosta)","license":"CC-BY-4.0 (http://creativecommons.org/licenses/by/4.0/)","source":"https://sketchfab.com/3d-models/shewolf-3195fa568c974a4f836fdc9c7abbe631","title":"SHEWOLF"}},"accessors":[{"type":"VEC3","componentType":5126,"count":4852,"max":[199.0312042236328,1661.8896484375,163.39427185058594],"min":[-199.0305938720703,1335.7987060546875,-65.83753204345703],"bufferView":0,"byteOffset":0},{"type":"VEC3","componentType":5126,"count":4852,"bufferView":0,"byteOffset":12},{"type":"VEC4","componentType":5126,"count":4852,"bufferView":0,"byteOffset":24},{"type":"VEC2","componentType":5126,"count":4852,"bufferView":0,"byteOffset":40},{"type":"VEC4","componentType":5123,"count":4852,"bufferView":0,"byteOffset":48},{"type":"VEC4","componentType":5126,"count":4852,"bufferView":0,"byteOffset":56},{"type":"VEC3","componentType":5126,"count":4852,"max":[1.8860054016113281,0.1231689453125,4.0338897705078125],"min":[-2.559417724609375,-12.263427734375,-2.2051239013671875],"bufferView":1,"byteOffset":0},{"type":"VEC3","componentType":5126,"count":4852,"bufferView":1,"byteOffset":12},{"type":"VEC3","componentType":5126,"count":4852,"max":[13.030397415161133,10.3480224609375,9.16717529296875],"min":[-12.980066299438477,-2.82177734375,-10.219512939453125],"bufferView":2,"byteOffset":0},{"type":"VEC3","componentType":5126,"count":4852,"bufferView":2,"byteOffset":12},{"type":"VEC3","componentType":5126,"count":4852,"max":[26.026939392089844,36.0206298828125,-3.8302001953125],"min":[-36.277008056640625,-29.5391845703125,-61.36381912231445],"bufferView":3,"byteOffset":0},{"type":"VEC3","componentType":5126,"count":4852,"bufferView":3,"byteOffset":12},{"type":"VEC3","componentType":5126,"count":4852,"max":[1.7769927978515625,7.467041015625,0.4289999008178711],"min":[-1.7769927978515625,0,-0.2762489318847656],"bufferView":4,"byteOffset":0},{"type":"VEC3","componentType":5126,"count":4852,"bufferView":4,"byteOffset":12},{"type":"VEC3","componentType":5126,"count":4495,"max":[32.83762741088867,1498.6988525390625,140.71578979492188],"min":[-27.429353713989258,1450.0543212890625,65.67107391357422],"bufferView":5,"byteOffset":0},{"type":"VEC3","componentType":5126,"count":4495,"bufferView":5,"byteOffset":12},{"type":"VEC2","componentType":5126,"count":4495,"bufferView":5,"byteOffset":24},{"type":"VEC4","componentType":5123,"count":4495,"bufferView":5,"byteOffset":32},{"type":"VEC4","componentType":5126,"count":4495,"bufferView":5,"byteOffset":40},{"type":"VEC3","componentType":5126,"count":4495,"max":[0,0,0],"min":[0,0,0],"bufferView":6,"byteOffset":0},{"type":"VEC3","componentType":5126,"count":4495,"bufferView":6,"byteOffset":12},{"type":"VEC3","componentType":5126,"count":4495,"max":[0,0,0],"min":[0,0,0],"bufferView":7,"byteOffset":0},{"type":"VEC3","componentType":5126,"count":4495,"bufferView":7,"byteOffset":12},{"type":"VEC3","componentType":5126,"count":4495,"max":[0.6944675445556641,24.1807861328125,4.58843994140625],"min":[-7.448057174682617,-8.9300537109375,-25.133434295654297],"bufferView":8,"byteOffset":0},{"type":"VEC3","componentType":5126,"count":4495,"bufferView":8,"byteOffset":12},{"type":"VEC3","componentType":5126,"count":4495,"max":[0,0,0],"min":[0,0,0],"bufferView":9,"byteOffset":0},{"type":"VEC3","componentType":5126,"count":4495,"bufferView":9,"byteOffset":12},{"type":"VEC3","componentType":5126,"count":251,"max":[54.9724006652832,1552.9752197265625,140.0514678955078],"min":[-46.70723342895508,1535.1507568359375,124.32621765136719],"bufferView":10,"byteOffset":0},{"type":"VEC3","componentType":5126,"count":251,"bufferView":10,"byteOffset":12},{"type":"VEC2","componentType":5126,"count":251,"bufferView":10,"byteOffset":24},{"type":"VEC4","componentType":5123,"count":251,"bufferView":10,"byteOffset":32},{"type":"VEC4","componentType":5126,"count":251,"bufferView":10,"byteOffset":40},{"type":"VEC3","componentType":5126,"count":251,"max":[1.533548355102539,0,2.090423583984375],"min":[-2.6472129821777344,-12.7884521484375,-0.41473388671875],"bufferView":11,"byteOffset":0},{"type":"VEC3","componentType":5126,"count":251,"bufferView":11,"byteOffset":12},{"type":"VEC3","componentType":5126,"count":251,"max":[0.4322357177734375,3.3175048828125,0.129425048828125],"min":[-0.29770660400390625,0,0],"bufferView":12,"byteOffset":0},{"type":"VEC3","componentType":5126,"count":251,"bufferView":12,"byteOffset":12},{"type":"VEC3","componentType":5126,"count":251,"max":[-3.5839881896972656,-10.1104736328125,-101.38845825195312],"min":[-5.754068374633789,-13.428466796875,-104.44049072265625],"bufferView":13,"byteOffset":0},{"type":"VEC3","componentType":5126,"count":251,"bufferView":13,"byteOffset":12},{"type":"VEC3","componentType":5126,"count":251,"max":[0,0,0],"min":[0,0,0],"bufferView":14,"byteOffset":0},{"type":"VEC3","componentType":5126,"count":251,"bufferView":14,"byteOffset":12},{"type":"VEC3","componentType":5126,"count":125,"max":[61.56758499145508,1564.2882080078125,146.57066345214844],"min":[-54.55973815917969,1550.1549072265625,114.88279724121094],"bufferView":15,"byteOffset":0},{"type":"VEC3","componentType":5126,"count":125,"bufferView":15,"byteOffset":12},{"type":"VEC2","componentType":5126,"count":125,"bufferView":15,"byteOffset":24},{"type":"VEC4","componentType":5123,"count":125,"bufferView":15,"byteOffset":32},{"type":"VEC4","componentType":5126,"count":125,"bufferView":15,"byteOffset":40},{"type":"VEC3","componentType":5126,"count":125,"max":[0,0,0],"min":[0,0,0],"bufferView":16,"byteOffset":0},{"type":"VEC3","componentType":5126,"count":125,"bufferView":16,"byteOffset":12},{"type":"VEC3","componentType":5126,"count":125,"max":[0,0,0],"min":[0,0,0],"bufferView":17,"byteOffset":0},{"type":"VEC3","componentType":5126,"count":125,"bufferView":17,"byteOffset":12},{"type":"VEC3","componentType":5126,"count":125,"max":[-4.759860992431641,-11.6319580078125,-100.664794921875],"min":[-7.505649566650391,-15.1055908203125,-105.73341369628906],"bufferView":18,"byteOffset":0},{"type":"VEC3","componentType":5126,"count":125,"bufferView":18,"byteOffset":12},{"type":"VEC3","componentType":5126,"count":125,"max":[0,0,0],"min":[0,0,0],"bufferView":19,"byteOffset":0},{"type":"VEC3","componentType":5126,"count":125,"bufferView":19,"byteOffset":12},{"type":"VEC3","componentType":5126,"count":524,"max":[51.25375747680664,1561.9365234375,136.1666717529297],"min":[-44.25255584716797,1530.0101318359375,108.72431945800781],"bufferView":20,"byteOffset":0},{"type":"VEC3","componentType":5126,"count":524,"bufferView":20,"byteOffset":12},{"type":"VEC2","componentType":5126,"count":524,"bufferView":20,"byteOffset":24},{"type":"VEC4","componentType":5123,"count":524,"bufferView":20,"byteOffset":32},{"type":"VEC4","componentType":5126,"count":524,"bufferView":20,"byteOffset":40},{"type":"VEC3","componentType":5126,"count":524,"max":[0,0,0],"min":[0,0,0],"bufferView":21,"byteOffset":0},{"type":"VEC3","componentType":5126,"count":524,"bufferView":21,"byteOffset":12},{"type":"VEC3","componentType":5126,"count":524,"max":[0,0,0],"min":[0,0,0],"bufferView":22,"byteOffset":0},{"type":"VEC3","componentType":5126,"count":524,"bufferView":22,"byteOffset":12},{"type":"VEC3","componentType":5126,"count":524,"max":[-5.384696960449219,-0.4300537109375,-29.41728973388672],"min":[-5.384803771972656,-0.43017578125,-29.417404174804688],"bufferView":23,"byteOffset":0},{"type":"VEC3","componentType":5126,"count":524,"bufferView":23,"byteOffset":12},{"type":"VEC3","componentType":5126,"count":524,"max":[0,0,0],"min":[0,0,0],"bufferView":24,"byteOffset":0},{"type":"VEC3","componentType":5126,"count":524,"bufferView":24,"byteOffset":12},{"type":"VEC3","componentType":5126,"count":553,"max":[50.819679260253906,1561.5123291015625,133.52259826660156],"min":[-43.8128776550293,1530.4305419921875,108.94446563720703],"bufferView":25,"byteOffset":0},{"type":"VEC3","componentType":5126,"count":553,"bufferView":25,"byteOffset":12},{"type":"VEC2","componentType":5126,"count":553,"bufferView":25,"byteOffset":24},{"type":"VEC4","componentType":5123,"count":553,"bufferView":25,"byteOffset":32},{"type":"VEC4","componentType":5126,"count":553,"bufferView":25,"byteOffset":40},{"type":"VEC3","componentType":5126,"count":553,"max":[0,0,0],"min":[0,0,0],"bufferView":26,"byteOffset":0},{"type":"VEC3","componentType":5126,"count":553,"bufferView":26,"byteOffset":12},{"type":"VEC3","componentType":5126,"count":553,"max":[0,0,0],"min":[0,0,0],"bufferView":27,"byteOffset":0},{"type":"VEC3","componentType":5126,"count":553,"bufferView":27,"byteOffset":12},{"type":"VEC3","componentType":5126,"count":553,"max":[-5.384696960449219,-0.4300537109375,-29.41728973388672],"min":[-5.384803771972656,-0.43017578125,-29.417404174804688],"bufferView":28,"byteOffset":0},{"type":"VEC3","componentType":5126,"count":553,"bufferView":28,"byteOffset":12},{"type":"VEC3","componentType":5126,"count":553,"max":[0,0,0],"min":[0,0,0],"bufferView":29,"byteOffset":0},{"type":"VEC3","componentType":5126,"count":553,"bufferView":29,"byteOffset":12},{"type":"VEC3","componentType":5126,"count":253,"max":[0.21729999780654907,14.973999977111816,1.3071000576019287],"min":[-0.21729999780654907,14.71399974822998,0.620199978351593],"bufferView":30,"byteOffset":0},{"type":"VEC3","componentType":5126,"count":253,"bufferView":30,"byteOffset":12},{"type":"VEC2","componentType":5126,"count":253,"bufferView":30,"byteOffset":24},{"type":"VEC2","componentType":5126,"count":253,"bufferView":30,"byteOffset":32},{"type":"VEC2","componentType":5126,"count":253,"bufferView":30,"byteOffset":40},{"type":"VEC2","componentType":5126,"count":253,"bufferView":30,"byteOffset":48},{"type":"VEC2","componentType":5126,"count":253,"bufferView":30,"byteOffset":56},{"type":"VEC2","componentType":5126,"count":253,"bufferView":30,"byteOffset":64},{"type":"VEC2","componentType":5126,"count":253,"bufferView":30,"byteOffset":72},{"type":"VEC2","componentType":5126,"count":253,"bufferView":30,"byteOffset":80},{"type":"VEC2","componentType":5126,"count":253,"bufferView":30,"byteOffset":88},{"type":"VEC2","componentType":5126,"count":253,"bufferView":30,"byteOffset":96},{"type":"SCALAR","componentType":5125,"count":27720,"bufferView":31,"byteOffset":0},{"type":"SCALAR","componentType":5125,"count":21360,"bufferView":31,"byteOffset":110880},{"type":"SCALAR","componentType":5125,"count":1104,"bufferView":31,"byteOffset":196320},{"type":"SCALAR","componentType":5125,"count":576,"bufferView":31,"byteOffset":200736},{"type":"SCALAR","componentType":5125,"count":2940,"bufferView":31,"byteOffset":203040},{"type":"SCALAR","componentType":5125,"count":3180,"bufferView":31,"byteOffset":214800},{"type":"SCALAR","componentType":5125,"count":1344,"bufferView":31,"byteOffset":227520},{"type":"MAT4","componentType":5126,"count":4,"bufferView":32,"byteOffset":0},{"type":"SCALAR","componentType":5126,"count":5,"max":[13.300000190734863],"min":[13.166666984558105],"bufferView":33,"byteOffset":0},{"type":"VEC3","componentType":5126,"count":5,"bufferView":33,"byteOffset":20},{"type":"SCALAR","componentType":5126,"count":5,"max":[13.300000190734863],"min":[13.166666984558105],"bufferView":33,"byteOffset":80},{"type":"VEC4","componentType":5126,"count":5,"bufferView":33,"byteOffset":100},{"type":"SCALAR","componentType":5126,"count":168,"max":[15.666666984558105],"min":[0],"bufferView":33,"byteOffset":180},{"type":"VEC3","componentType":5126,"count":168,"bufferView":33,"byteOffset":852},{"type":"SCALAR","componentType":5126,"count":437,"max":[15.666666984558105],"min":[0],"bufferView":33,"byteOffset":2868},{"type":"VEC4","componentType":5126,"count":437,"bufferView":33,"byteOffset":4616},{"type":"SCALAR","componentType":5126,"count":303,"max":[10.100000381469727],"min":[0.03333333507180214],"bufferView":33,"byteOffset":11608},{"type":"VEC4","componentType":5126,"count":303,"bufferView":33,"byteOffset":12820},{"type":"SCALAR","componentType":5126,"count":8,"max":[13.366666793823242],"min":[0.03333333507180214],"bufferView":33,"byteOffset":17668},{"type":"VEC3","componentType":5126,"count":8,"bufferView":33,"byteOffset":17700},{"type":"SCALAR","componentType":5126,"count":35,"max":[15.666666984558105],"min":[0],"bufferView":33,"byteOffset":17796},{"type":"VEC3","componentType":5126,"count":35,"bufferView":33,"byteOffset":17936},{"type":"SCALAR","componentType":5126,"count":43,"max":[15.666666984558105],"min":[0],"bufferView":33,"byteOffset":18356},{"type":"VEC4","componentType":5126,"count":43,"bufferView":33,"byteOffset":18528},{"type":"SCALAR","componentType":5126,"count":366,"max":[15.666666984558105],"min":[0],"bufferView":33,"byteOffset":19216},{"type":"SCALAR","componentType":5126,"count":1464,"bufferView":33,"byteOffset":20680},{"type":"SCALAR","componentType":5126,"count":366,"max":[15.666666984558105],"min":[0],"bufferView":33,"byteOffset":26536},{"type":"SCALAR","componentType":5126,"count":1464,"bufferView":33,"byteOffset":28000},{"type":"SCALAR","componentType":5126,"count":366,"max":[15.666666984558105],"min":[0],"bufferView":33,"byteOffset":33856},{"type":"SCALAR","componentType":5126,"count":1464,"bufferView":33,"byteOffset":35320},{"type":"SCALAR","componentType":5126,"count":366,"max":[15.666666984558105],"min":[0],"bufferView":33,"byteOffset":41176},{"type":"SCALAR","componentType":5126,"count":1464,"bufferView":33,"byteOffset":42640},{"type":"SCALAR","componentType":5126,"count":366,"max":[15.666666984558105],"min":[0],"bufferView":33,"byteOffset":48496},{"type":"SCALAR","componentType":5126,"count":1464,"bufferView":33,"byteOffset":49960},{"type":"SCALAR","componentType":5126,"count":366,"max":[15.666666984558105],"min":[0],"bufferView":33,"byteOffset":55816},{"type":"SCALAR","componentType":5126,"count":1464,"bufferView":33,"byteOffset":57280}],"bufferViews":[{"buffer":0,"byteOffset":0,"byteLength":349344,"byteStride":72,"target":34962},{"buffer":0,"byteOffset":349344,"byteLength":116448,"byteStride":24,"target":34962},{"buffer":0,"byteOffset":465792,"byteLength":116448,"byteStride":24,"target":34962},{"buffer":0,"byteOffset":582240,"byteLength":116448,"byteStride":24,"target":34962},{"buffer":0,"byteOffset":698688,"byteLength":116448,"byteStride":24,"target":34962},{"buffer":0,"byteOffset":815136,"byteLength":251720,"byteStride":56,"target":34962},{"buffer":0,"byteOffset":1066856,"byteLength":107880,"byteStride":24,"target":34962},{"buffer":0,"byteOffset":1174736,"byteLength":107880,"byteStride":24,"target":34962},{"buffer":0,"byteOffset":1282616,"byteLength":107880,"byteStride":24,"target":34962},{"buffer":0,"byteOffset":1390496,"byteLength":107880,"byteStride":24,"target":34962},{"buffer":0,"byteOffset":1498376,"byteLength":14056,"byteStride":56,"target":34962},{"buffer":0,"byteOffset":1512432,"byteLength":6024,"byteStride":24,"target":34962},{"buffer":0,"byteOffset":1518456,"byteLength":6024,"byteStride":24,"target":34962},{"buffer":0,"byteOffset":1524480,"byteLength":6024,"byteStride":24,"target":34962},{"buffer":0,"byteOffset":1530504,"byteLength":6024,"byteStride":24,"target":34962},{"buffer":0,"byteOffset":1536528,"byteLength":7000,"byteStride":56,"target":34962},{"buffer":0,"byteOffset":1543528,"byteLength":3000,"byteStride":24,"target":34962},{"buffer":0,"byteOffset":1546528,"byteLength":3000,"byteStride":24,"target":34962},{"buffer":0,"byteOffset":1549528,"byteLength":3000,"byteStride":24,"target":34962},{"buffer":0,"byteOffset":1552528,"byteLength":3000,"byteStride":24,"target":34962},{"buffer":0,"byteOffset":1555528,"byteLength":29344,"byteStride":56,"target":34962},{"buffer":0,"byteOffset":1584872,"byteLength":12576,"byteStride":24,"target":34962},{"buffer":0,"byteOffset":1597448,"byteLength":12576,"byteStride":24,"target":34962},{"buffer":0,"byteOffset":1610024,"byteLength":12576,"byteStride":24,"target":34962},{"buffer":0,"byteOffset":1622600,"byteLength":12576,"byteStride":24,"target":34962},{"buffer":0,"byteOffset":1635176,"byteLength":30968,"byteStride":56,"target":34962},{"buffer":0,"byteOffset":1666144,"byteLength":13272,"byteStride":24,"target":34962},{"buffer":0,"byteOffset":1679416,"byteLength":13272,"byteStride":24,"target":34962},{"buffer":0,"byteOffset":1692688,"byteLength":13272,"byteStride":24,"target":34962},{"buffer":0,"byteOffset":1705960,"byteLength":13272,"byteStride":24,"target":34962},{"buffer":0,"byteOffset":1719232,"byteLength":26312,"byteStride":104,"target":34962},{"buffer":0,"byteOffset":1745544,"byteLength":232896,"target":34963},{"buffer":0,"byteOffset":1978440,"byteLength":256},{"buffer":0,"byteOffset":1978696,"byteLength":63136}],"samplers":[{"magFilter":9729,"minFilter":9987,"wrapS":10497,"wrapT":10497}],"textures":[{"source":0,"sampler":0},{"source":2,"sampler":0},{"source":1,"sampler":0},{"source":3,"sampler":0},{"source":4,"sampler":0},{"source":5,"sampler":0},{"source":6,"sampler":0}],"images":[{"mimeType":"image/jpeg","uri":"baseColor_1.jpg"},{"mimeType":"image/png","uri":"occlusion_1.png"},{"mimeType":"image/jpeg","uri":"normal_1.jpg"},{"mimeType":"image/png","uri":"baseColor_2.png"},{"mimeType":"image/png","uri":"baseColor_3.png"},{"mimeType":"image/png","uri":"baseColor_4.png"},{"mimeType":"image/png","uri":"baseColor_5.png"}],"buffers":[{"uri":"shewolf.bin","byteLength":2041832}],"materials":[{"name":"PELE","doubleSided":true,"pbrMetallicRoughness":{"metallicFactor":0.2380050197,"baseColorTexture":{"index":0},"metallicRoughnessTexture":{"index":2}},"normalTexture":{"index":1},"occlusionTexture":{"index":2}},{"name":"DENTES","doubleSided":true,"pbrMetallicRoughness":{"roughnessFactor":0.11660575952522834,"metallicFactor":0.3167928985,"baseColorTexture":{"index":3}}},{"name":"CILIOS","alphaMode":"BLEND","doubleSided":true,"pbrMetallicRoughness":{"baseColorFactor":[0.0352941,0.00392157,0.00392157,1],"roughnessFactor":0.8929713596,"metallicFactor":0,"baseColorTexture":{"index":4}}},{"name":"SOBRANCELHAS","alphaMode":"BLEND","doubleSided":true,"pbrMetallicRoughness":{"baseColorFactor":[0.0729472241,0.0348444124,0.0276307377,1],"roughnessFactor":0.6468434652,"metallicFactor":0.165277747,"baseColorTexture":{"index":5}}},{"name":"OLHO_EXTERNO","alphaMode":"BLEND","doubleSided":true,"pbrMetallicRoughness":{"baseColorFactor":[0,0,0,0.3592171409],"roughnessFactor":0.1074495258,"metallicFactor":0}},{"name":"OLHO_INTERNO","doubleSided":true,"pbrMetallicRoughness":{"roughnessFactor":0.8929713596,"metallicFactor":0,"baseColorTexture":{"index":6}}},{"name":"LINGUA","doubleSided":true,"pbrMetallicRoughness":{"baseColorFactor":[0.164706,0.054902,0.054902,1],"roughnessFactor":0.21997561687482514,"metallicFactor":0.1841275584039694}}],"meshes":[{"name":"0","primitives":[{"attributes":{"JOINTS_0":4,"NORMAL":1,"POSITION":0,"TANGENT":2,"TEXCOORD_0":3,"WEIGHTS_0":5},"mode":4,"material":0,"indices":91,"targets":[{"NORMAL":7,"POSITION":6},{"NORMAL":9,"POSITION":8},{"NORMAL":11,"POSITION":10},{"NORMAL":13,"POSITION":12}]}],"weights":[0,0,0,0],"extras":{"targetNames":["0","1","2","3"]}},{"name":"1","primitives":[{"attributes":{"JOINTS_0":17,"NORMAL":15,"POSITION":14,"TEXCOORD_0":16,"WEIGHTS_0":18},"mode":4,"material":1,"indices":92,"targets":[{"NORMAL":20,"POSITION":19},{"NORMAL":22,"POSITION":21},{"NORMAL":24,"POSITION":23},{"NORMAL":26,"POSITION":25}]}],"weights":[0,0,0,0],"extras":{"targetNames":["0","1","2","3"]}},{"name":"2","primitives":[{"attributes":{"JOINTS_0":30,"NORMAL":28,"POSITION":27,"TEXCOORD_0":29,"WEIGHTS_0":31},"mode":4,"material":2,"indices":93,"targets":[{"NORMAL":33,"POSITION":32},{"NORMAL":35,"POSITION":34},{"NORMAL":37,"POSITION":36},{"NORMAL":39,"POSITION":38}]}],"weights":[0,0,0,0],"extras":{"targetNames":["0","1","2","3"]}},{"name":"3","primitives":[{"attributes":{"JOINTS_0":43,"NORMAL":41,"POSITION":40,"TEXCOORD_0":42,"WEIGHTS_0":44},"mode":4,"material":3,"indices":94,"targets":[{"NORMAL":46,"POSITION":45},{"NORMAL":48,"POSITION":47},{"NORMAL":50,"POSITION":49},{"NORMAL":52,"POSITION":51}]}],"weights":[0,0,0,0],"extras":{"targetNames":["0","1","2","3"]}},{"name":"4","primitives":[{"attributes":{"JOINTS_0":56,"NORMAL":54,"POSITION":53,"TEXCOORD_0":55,"WEIGHTS_0":57},"mode":4,"material":4,"indices":95,"targets":[{"NORMAL":59,"POSITION":58},{"NORMAL":61,"POSITION":60},{"NORMAL":63,"POSITION":62},{"NORMAL":65,"POSITION":64}]}],"weights":[0,0,0,0],"extras":{"targetNames":["0","1","2","3"]}},{"name":"5","primitives":[{"attributes":{"JOINTS_0":69,"NORMAL":67,"POSITION":66,"TEXCOORD_0":68,"WEIGHTS_0":70},"mode":4,"material":5,"indices":96,"targets":[{"NORMAL":72,"POSITION":71},{"NORMAL":74,"POSITION":73},{"NORMAL":76,"POSITION":75},{"NORMAL":78,"POSITION":77}]}],"weights":[0,0,0,0],"extras":{"targetNames":["0","1","2","3"]}},{"name":"123-tongue01_LINGUA_0","primitives":[{"attributes":{"NORMAL":80,"POSITION":79,"TEXCOORD_0":81,"TEXCOORD_1":82,"TEXCOORD_2":83,"TEXCOORD_3":84,"TEXCOORD_4":85,"TEXCOORD_5":86,"TEXCOORD_6":87,"TEXCOORD_7":88,"TEXCOORD_8":89,"TEXCOORD_9":90},"mode":4,"material":6,"indices":97}]}],"nodes":[{"name":"Sketchfab_model","rotation":[-0.7071067811865475,0,0,0.7071067811865476],"scale":[0.0011541704880073667,0.0011541704880073667,0.0011541704880073667],"children":[1]},{"name":"81cda19c8701427480f29d612dca8827.fbx","rotation":[0.7071067811865475,0,0,0.7071067811865476],"children":[2]},{"name":"Object_2","children":[3]},{"name":"RootNode","children":[4]},{"name":"Object_4","children":[5,7,8,9,10,11,12,6,19]},{"name":"_rootJoint","children":[13]},{"name":"Object_6","translation":[1.5543664445838434e-15,0.19335937500045475,-0.000026702880902007564],"rotation":[-0.7071067811865475,0,0,0.7071067811865476]},{"name":"Object_7","mesh":0,"skin":0},{"name":"Object_8","mesh":1,"skin":0},{"name":"Object_9","mesh":2,"skin":0},{"name":"Object_10","mesh":3,"skin":0},{"name":"Object_11","mesh":4,"skin":0},{"name":"Object_12","mesh":5,"skin":0},{"name":"Bone001_00","translation":[-0.000012450423128029797,1330.6868896484375,14.101068496704102],"rotation":[0.031280022114515305,-0.031284790486097336,0.7064141631126404,0.7064148187637329],"children":[14]},{"name":"Bone004_01","translation":[65.98681640625,-1.1641532182693481e-10,0],"rotation":[-2.374653718106856e-7,-0.008589879609644413,1.0787611159912558e-7,0.999963104724884],"children":[15]},{"name":"Bone003_02","translation":[82.080810546875,-1.5133991837501526e-9,0.0000152587890625],"rotation":[-0.12153352797031403,-0.10013736039400101,0.04897676780819893,0.9863079786300659],"children":[16]},{"name":"123-tongue01","translation":[18.5970458984375,9.450523376464844,36.31768798828125],"rotation":[-0.06377139687538147,-0.018728025257587433,-0.6997784972190857,0.7112612128257751],"scale":[107.62073516845703,107.62073516845703,107.62073516845703],"children":[17]},{"name":"Object_17","translation":[0,-14.844000816345215,-0.9636499881744385],"children":[18]},{"name":"123-tongue01_LINGUA_0","mesh":6},{"name":"menina","translation":[0.00030517578125,1498.84423828125,48.77836990356445],"rotation":[-0.7071068286895752,0,0,0.7071068286895752]}],"skins":[{"inverseBindMatrices":98,"skeleton":5,"joints":[5,13,14,15]}],"animations":[{"name":"menina","samplers":[{"input":99,"output":100,"interpolation":"LINEAR"},{"input":101,"output":102,"interpolation":"LINEAR"},{"input":103,"output":104,"interpolation":"LINEAR"},{"input":105,"output":106,"interpolation":"LINEAR"},{"input":107,"output":108,"interpolation":"LINEAR"},{"input":109,"output":110,"interpolation":"LINEAR"},{"input":111,"output":112,"interpolation":"LINEAR"},{"input":113,"output":114,"interpolation":"LINEAR"},{"input":115,"output":116,"interpolation":"LINEAR"},{"input":117,"output":118,"interpolation":"LINEAR"},{"input":119,"output":120,"interpolation":"LINEAR"},{"input":121,"output":122,"interpolation":"LINEAR"},{"input":123,"output":124,"interpolation":"LINEAR"},{"input":125,"output":126,"interpolation":"LINEAR"}],"channels":[{"sampler":0,"target":{"node":16,"path":"translation"}},{"sampler":1,"target":{"node":16,"path":"rotation"}},{"sampler":2,"target":{"node":15,"path":"translation"}},{"sampler":3,"target":{"node":15,"path":"rotation"}},{"sampler":4,"target":{"node":14,"path":"rotation"}},{"sampler":5,"target":{"node":13,"path":"translation"}},{"sampler":6,"target":{"node":19,"path":"scale"}},{"sampler":7,"target":{"node":19,"path":"rotation"}},{"sampler":8,"target":{"node":7,"path":"weights"}},{"sampler":9,"target":{"node":8,"path":"weights"}},{"sampler":10,"target":{"node":9,"path":"weights"}},{"sampler":11,"target":{"node":10,"path":"weights"}},{"sampler":12,"target":{"node":11,"path":"weights"}},{"sampler":13,"target":{"node":12,"path":"weights"}}]}],"scenes":[{"name":"Sketchfab_Scene","nodes":[0]}],"scene":0}